<?xml version="1.0" encoding="UTF-8" standalone="no"?>
<svg
        xmlns="http://www.w3.org/2000/svg"
        version="1.1"
        viewBox="0 0 9.5249998 9.5250001"
        height="36"
        width="36">
    <path
            id="path10"
            d="M 4.7638455,0.53137 A 4.234552,4.2397164 0 0 0 0.5289618,4.7709 4.234552,4.2397164 0 0 0 2.7644842,8.50659 L 4.472907,6.77129 V 2.52504 L 6.2288722,0.79905 A 4.234552,4.2397164 0 0 0 4.7638455,0.53137 Z M 6.7497706,1.02901 5.0025904,2.74777 V 6.98782 L 3.2802151,8.73655 A 4.234552,4.2397164 0 0 0 4.7638455,9.01095 4.234552,4.2397164 0 0 0 8.9982122,4.7709 4.234552,4.2397164 0 0 0 6.7497706,1.02901 Z"
            style="fill:#669966;fill-opacity:1;stroke-width:0.44586113"/>
    <path
            id="rect843"
            d="M 2.6400214,2.98961 H 3.4837795 L 2.8616687,4.75697 3.4837795,6.53152 H 2.6400214 L 2.0179106,4.75697 Z"
            style="fill:#88cc66;fill-opacity:1;stroke-width:0.62211072;stroke-miterlimit:4;stroke-dasharray:none"/>
    <path
            style="fill:#88cc66;fill-opacity:1;stroke-width:0.62211072;stroke-miterlimit:4;stroke-dasharray:none"
            d="M 6.8945507,2.98961 H 6.0507926 L 6.6729034,4.75697 6.0507926,6.53152 H 6.8945507 L 7.5166615,4.75697 Z"
            id="path846"/>
</svg>
